{"accessors" : [{"bufferView" : 0, "byteOffset" : 0, "componentType" : 5123, "count" : 16842, "type" : "SCALAR", "max" : [16841], "min" : [0]}, {"bufferView" : 1, "byteOffset" : 0, "componentType" : 5126, "count" : 16842, "type" : "VEC3", "max" : [10.451597213745117, 55.98398208618164, 43.450626373291016], "min" : [-7.546998977661133, -0.538632869720459, -63.1134033203125]}, {"bufferView" : 1, "byteOffset" : 12, "componentType" : 5126, "count" : 16842, "type" : "VEC3", "max" : [0.9999629259109497, 0.9987309575080872, 0.9986278414726257], "min" : [-0.9997715353965759, -0.999631941318512, -0.99989253282547]}, {"bufferView" : 1, "byteOffset" : 24, "componentType" : 5126, "count" : 16842, "type" : "VEC2", "max" : [0.993399977684021, 0.9926999807357788], "min" : [0.012500000186264515, 0.007423341274261475]}, {"bufferView" : 1, "byteOffset" : 32, "componentType" : 5126, "count" : 16842, "type" : "VEC2", "max" : [0.993399977684021, 0.9926999807357788], "min" : [0.012500000186264515, 0.007423341274261475]}, {"bufferView" : 1, "byteOffset" : 40, "componentType" : 5126, "count" : 16842, "type" : "VEC4", "max" : [1, 1, 1, 1], "min" : [1, 1, 1, 1]}], "asset" : {"generator" : "Aspose.3D 20.11", "version" : "2.0"}, "buffers" : [{"uri" : "buffer.bin", "byteLength" : 14676772}], "bufferViews" : [{"buffer" : 0, "byteOffset" : 0, "byteLength" : 33684, "target" : 34963}, {"buffer" : 0, "byteOffset" : 33688, "byteLength" : 943152, "byteStride" : 56, "target" : 34962}, {"buffer" : 0, "byteOffset" : 976844, "byteLength" : 5826151}, {"buffer" : 0, "byteOffset" : 6802996, "byteLength" : 5058464}, {"buffer" : 0, "byteOffset" : 11861464, "byteLength" : 2815305}], "images" : [{"mimeType" : "image/png", "bufferView" : 2}, {"mimeType" : "image/png", "bufferView" : 3}, {"mimeType" : "image/png", "bufferView" : 4}], "materials" : [{"pbrMetallicRoughness" : {"baseColorFactor" : [1, 1, 1, 1], "baseColorTexture" : {"index" : 1, "texCoord" : 0}, "metallicFactor" : 1, "roughnessFactor" : 1, "metallicRoughnessTexture" : {"index" : 2, "texCoord" : 0}}, "normalTexture" : {"index" : 0, "texCoord" : 0, "scale" : 1}, "emissiveFactor" : [0, 0, 0], "alphaMode" : "OPAQUE", "doubleSided" : true}], "meshes" : [{"primitives" : [{"attributes" : {"POSITION" : 1, "NORMAL" : 2, "TEXCOORD_0" : 3, "TEXCOORD_1" : 4, "COLOR" : 5}, "indices" : 0, "material" : 0, "mode" : 4}]}], "nodes" : [{"matrix" : [0.9985482376794619, 0.05361312071558655, 0.00520101247061504, 0, -0.053570266552648294, 0.998531585934477, -0.008055969927975835, 0, -0.005625280887365537, 0.007765654971615989, 0.9999540243554458, 0, -0.03102099895477295, 3.582427740097046, -0.4235004186630249, 1], "mesh" : 0, "name" : "SK_Fox.001_M_Fox_0"}], "samplers" : [{"magFilter" : 9729, "minFilter" : 9729, "wrapS" : 10497, "wrapT" : 10497}, {"magFilter" : 9729, "minFilter" : 9729, "wrapS" : 10497, "wrapT" : 10497}, {"magFilter" : 9729, "minFilter" : 9729, "wrapS" : 10497, "wrapT" : 10497}], "scene" : 0, "scenes" : [{"nodes" : [0]}], "textures" : [{"sampler" : 0, "source" : 0}, {"sampler" : 1, "source" : 1}, {"sampler" : 2, "source" : 2}]}