{
    "asset": {
        "version": "2.0",
        "generator": "Open Asset Import Library (assimp v5.0.5eb040c7)"
    },
    "accessors": [
        {
            "bufferView": 0,
            "byteOffset": 0,
            "componentType": 5126,
            "count": 3370,
            "type": "VEC3",
            "max": [
                8.568251609802246,
                59.61840057373047,
                42.69049835205078
            ],
            "min": [
                -9.090584754943848,
                3.28798508644104,
                -63.8029670715332
            ]
        },
        {
            "bufferView": 1,
            "byteOffset": 0,
            "componentType": 5126,
            "count": 3370,
            "type": "VEC3",
            "max": [
                0.999833881855011,
                0.9984050989151001,
                0.998364269733429
            ],
            "min": [
                -0.9998438954353333,
                -0.9999904632568359,
                -0.999809205532074
            ]
        },
        {
            "bufferView": 2,
            "byteOffset": 0,
            "componentType": 5126,
            "count": 3370,
            "type": "VEC2",
            "max": [
                0.993399977684021,
                0.9926999807357788
            ],
            "min": [
                0.012500000186264515,
                0.007422983646392822
            ]
        },
        {
            "bufferView": 3,
            "byteOffset": 0,
            "componentType": 5125,
            "count": 16842,
            "type": "SCALAR",
            "max": [
                3369
            ],
            "min": [
                0
            ]
        }
    ],
    "buffers": [
        {
            "byteLength": 175208,
            "uri": "result.bin"
        }
    ],
    "bufferViews": [
        {
            "buffer": 0,
            "byteOffset": 0,
            "byteLength": 40440,
            "target": 34962
        },
        {
            "buffer": 0,
            "byteOffset": 40440,
            "byteLength": 40440,
            "target": 34962
        },
        {
            "buffer": 0,
            "byteOffset": 80880,
            "byteLength": 26960,
            "target": 34962
        },
        {
            "buffer": 0,
            "byteOffset": 107840,
            "byteLength": 67368,
            "target": 34963
        }
    ],
    "materials": [
        {
            "name": "DefaultMaterial",
            "pbrMetallicRoughness": {
                "baseColorFactor": [
                    0.6000000238418579,
                    0.6000000238418579,
                    0.6000000238418579,
                    1.0
                ],
                "metallicFactor": 0.0
            }
        },
        {
            "name": "M_Fox",
            "pbrMetallicRoughness": {
                "baseColorFactor": [
                    0.6000000238418579,
                    0.6000000238418579,
                    0.6000000238418579,
                    1.0
                ],
                "metallicFactor": 0.0
            }
        }
    ],
    "meshes": [
        {
            "name": "SK_Fox.001_M_Fox_0",
            "primitives": [
                {
                    "mode": 4,
                    "material": 1,
                    "indices": 3,
                    "attributes": {
                        "POSITION": 0,
                        "NORMAL": 1,
                        "TEXCOORD_0": 2
                    }
                }
            ]
        }
    ],
    "nodes": [
        {
            "name": "input.obj",
            "children": [
                1
            ]
        },
        {
            "name": "SK_Fox.001_M_Fox_0",
            "mesh": 0
        }
    ],
    "scenes": [
        {
            "nodes": [
                0
            ]
        }
    ],
    "scene": 0
}