{"accessors" : [{"bufferView" : 0, "byteOffset" : 0, "componentType" : 5123, "count" : 16842, "type" : "SCALAR", "max" : [16841], "min" : [0]}, {"bufferView" : 1, "byteOffset" : 0, "componentType" : 5126, "count" : 16842, "type" : "VEC3", "max" : [0.09011200070381165, 0.5931860208511353, 0.025273999199271202], "min" : [-0.08648400008678436, -0.46984100341796875, -0.5458620190620422]}, {"bufferView" : 1, "byteOffset" : 12, "componentType" : 5126, "count" : 16842, "type" : "VEC2", "max" : [0.993399977684021, -0.007300000172108412], "min" : [0.012500000186264515, -0.9925770163536072]}, {"bufferView" : 1, "byteOffset" : 20, "componentType" : 5126, "count" : 16842, "type" : "VEC3", "max" : [0.9997260570526123, 0.9983842968940735, 0.9999458193778992], "min" : [-0.9997465014457703, -0.9992786645889282, -0.9971161484718323]}], "asset" : {"generator" : "Aspose.3D 20.11", "version" : "2.0"}, "buffers" : [{"uri" : "buffer.bin", "byteLength" : 572636}], "bufferViews" : [{"buffer" : 0, "byteOffset" : 0, "byteLength" : 33684, "target" : 34963}, {"buffer" : 0, "byteOffset" : 33688, "byteLength" : 538944, "byteStride" : 32, "target" : 34962}], "meshes" : [{"primitives" : [{"attributes" : {"POSITION" : 1, "TEXCOORD_0" : 2, "NORMAL" : 3}, "indices" : 0, "mode" : 4}]}], "nodes" : [{"mesh" : 0, "name" : "SK_Fox.001_M_Fox_0"}], "scene" : 0, "scenes" : [{"nodes" : [0]}]}